<svg width="546" height="81" viewBox="0 0 546 81" fill="none" xmlns="http://www.w3.org/2000/svg">
<path d="M1 23.6788C1 17.14 5.49831 11.5499 11.8911 10.4337C44.0993 4.8098 139.514 -7.94514 255.466 12.6977C296.925 20.0786 323.16 22.729 339.506 22.7496C347.676 22.76 353.427 22.1141 357.394 21.0482C361.335 19.989 363.685 18.4684 364.786 16.5842C365.291 15.7192 365.567 14.9017 365.59 14.1632C373.264 14.1643 386.894 12.3342 410.512 6.93734C464.244 -5.34066 514.487 4.38363 535.444 9.73955C541.196 11.2095 545 16.4596 545 22.4691V50.7024C545 57.8966 539.495 63.931 532.329 64.6273C339.478 83.3658 222.686 86.7712 13.5579 64.7354C6.44707 63.9861 1 57.9729 1 50.8304V23.6788Z" fill="#FB0C0C" stroke="white" stroke-width="2"/>
</svg>
